<?xml version="1.0" encoding="UTF-8" standalone="no"?>
<!-- Created with Inkscape (http://www.inkscape.org/) -->

<svg
   version="1.1"
   id="svg1"
   width="467.23999"
   height="467.23999"
   viewBox="0 0 467.23999 467.23999"
   sodipodi:docname="Logo.svg"
   inkscape:export-filename="Logo 128px.png"
   inkscape:export-xdpi="26.299118"
   inkscape:export-ydpi="26.299118"
   inkscape:version="1.3.2 (091e20e, 2023-11-25, custom)"
   xmlns:inkscape="http://www.inkscape.org/namespaces/inkscape"
   xmlns:sodipodi="http://sodipodi.sourceforge.net/DTD/sodipodi-0.dtd"
   xmlns="http://www.w3.org/2000/svg"
   xmlns:svg="http://www.w3.org/2000/svg">
  <defs
     id="defs1">
    <clipPath
       clipPathUnits="userSpaceOnUse"
       id="clipPath1">
      <path
         d="M 0,0 H 376 V 376 H 0 Z"
         id="path1" />
    </clipPath>
    <clipPath
       clipPathUnits="userSpaceOnUse"
       id="clipPath2">
      <path
         d="M 0,0 H 376 V 376 H 0 Z"
         transform="scale(1.3333333)"
         id="path2" />
    </clipPath>
    <clipPath
       clipPathUnits="userSpaceOnUse"
       id="clipPath3">
      <path
         d="M 188,12.773 C 91.223,12.773 12.773,91.223 12.773,188 c 0,96.773 78.45,175.227 175.227,175.227 96.773,0 175.227,-78.454 175.227,-175.227 C 363.227,91.223 284.773,12.773 188,12.773 Z"
         transform="scale(1.3333333)"
         id="path3" />
    </clipPath>
    <clipPath
       clipPathUnits="userSpaceOnUse"
       id="clipPath4">
      <path
         d="M 12.773,12.773 H 363.226 V 363.226 H 12.773 Z"
         transform="scale(1.3333333)"
         id="path4" />
    </clipPath>
    <clipPath
       clipPathUnits="userSpaceOnUse"
       id="clipPath5">
      <path
         d="m 12.773,12.773 h 350.43 v 350.43 H 12.773 Z"
         transform="scale(1.3333333)"
         id="path5" />
    </clipPath>
    <clipPath
       clipPathUnits="userSpaceOnUse"
       id="clipPath10">
      <path
         d="M 0,0 H 376 V 376 H 0 Z"
         id="path10" />
    </clipPath>
    <clipPath
       clipPathUnits="userSpaceOnUse"
       id="clipPath11">
      <path
         d="m 120.004,57.965 c -34.262,0 -62.039,27.777 -62.039,62.039 0,34.266 27.777,62.039 62.039,62.039 34.266,0 62.039,-27.773 62.039,-62.039 0,-34.262 -27.773,-62.039 -62.039,-62.039 z"
         transform="scale(1.3333333)"
         id="path11" />
    </clipPath>
    <clipPath
       clipPathUnits="userSpaceOnUse"
       id="clipPath12">
      <path
         d="M 57.965,57.965 H 182.043 V 182.043 H 57.965 Z"
         transform="scale(1.3333333)"
         id="path12" />
    </clipPath>
    <clipPath
       clipPathUnits="userSpaceOnUse"
       id="clipPath13">
      <path
         d="M 0,0 H 376 V 376 H 0 Z"
         transform="scale(1.3333333)"
         id="path13" />
    </clipPath>
    <clipPath
       clipPathUnits="userSpaceOnUse"
       id="clipPath18">
      <path
         d="M 0,0 H 376 V 376 H 0 Z"
         id="path18" />
    </clipPath>
    <clipPath
       clipPathUnits="userSpaceOnUse"
       id="clipPath19">
      <path
         d="m 255.996,57.965 c -34.266,0 -62.039,27.777 -62.039,62.039 0,34.266 27.773,62.039 62.039,62.039 34.262,0 62.039,-27.773 62.039,-62.039 0,-34.262 -27.777,-62.039 -62.039,-62.039 z"
         transform="scale(1.3333333)"
         id="path19" />
    </clipPath>
    <clipPath
       clipPathUnits="userSpaceOnUse"
       id="clipPath20">
      <path
         d="M 193.957,57.965 H 318.035 V 182.043 H 193.957 Z"
         transform="scale(1.3333333)"
         id="path20" />
    </clipPath>
    <clipPath
       clipPathUnits="userSpaceOnUse"
       id="clipPath21">
      <path
         d="M 0,0 H 376 V 376 H 0 Z"
         transform="scale(1.3333333)"
         id="path21" />
    </clipPath>
    <clipPath
       clipPathUnits="userSpaceOnUse"
       id="clipPath26">
      <path
         d="M 0,0 H 376 V 376 H 0 Z"
         id="path26" />
    </clipPath>
    <clipPath
       clipPathUnits="userSpaceOnUse"
       id="clipPath27">
      <path
         d="m 255.996,193.957 c -34.266,0 -62.039,27.773 -62.039,62.039 0,34.262 27.773,62.039 62.039,62.039 34.262,0 62.039,-27.777 62.039,-62.039 0,-34.266 -27.777,-62.039 -62.039,-62.039 z"
         transform="scale(1.3333333)"
         id="path27" />
    </clipPath>
    <clipPath
       clipPathUnits="userSpaceOnUse"
       id="clipPath28">
      <path
         d="M 193.957,193.957 H 318.035 V 318.035 H 193.957 Z"
         transform="scale(1.3333333)"
         id="path28" />
    </clipPath>
    <clipPath
       clipPathUnits="userSpaceOnUse"
       id="clipPath29">
      <path
         d="M 0,0 H 376 V 376 H 0 Z"
         transform="scale(1.3333333)"
         id="path29" />
    </clipPath>
    <clipPath
       clipPathUnits="userSpaceOnUse"
       id="clipPath34">
      <path
         d="M 0,0 H 376 V 376 H 0 Z"
         id="path34" />
    </clipPath>
    <clipPath
       clipPathUnits="userSpaceOnUse"
       id="clipPath35">
      <path
         d="m 120.004,193.957 c -34.262,0 -62.039,27.773 -62.039,62.039 0,34.262 27.777,62.039 62.039,62.039 34.266,0 62.039,-27.777 62.039,-62.039 0,-34.266 -27.773,-62.039 -62.039,-62.039 z"
         transform="scale(1.3333333)"
         id="path35" />
    </clipPath>
    <clipPath
       clipPathUnits="userSpaceOnUse"
       id="clipPath36">
      <path
         d="M 57.965,193.957 H 182.043 V 318.035 H 57.965 Z"
         transform="scale(1.3333333)"
         id="path36" />
    </clipPath>
    <clipPath
       clipPathUnits="userSpaceOnUse"
       id="clipPath37">
      <path
         d="M 0,0 H 376 V 376 H 0 Z"
         transform="scale(1.3333333)"
         id="path37" />
    </clipPath>
    <clipPath
       clipPathUnits="userSpaceOnUse"
       id="clipPath42">
      <path
         d="M 0,0 H 376 V 376 H 0 Z"
         id="path42" />
    </clipPath>
    <clipPath
       clipPathUnits="userSpaceOnUse"
       id="clipPath44">
      <path
         d="m 76.812,214.562 h 86.648 v 85.633 H 76.812 Z"
         transform="scale(1.3333333)"
         id="path44" />
    </clipPath>
    <clipPath
       clipPathUnits="userSpaceOnUse"
       id="clipPath45">
      <path
         d="M 0,0 H 376 V 376 H 0 Z"
         id="path45" />
    </clipPath>
    <clipPath
       clipPathUnits="userSpaceOnUse"
       id="clipPath47">
      <path
         d="m 76.812,214.562 h 86.648 v 85.633 H 76.812 Z"
         transform="scale(1.3333333)"
         id="path47" />
    </clipPath>
    <clipPath
       clipPathUnits="userSpaceOnUse"
       id="clipPath48">
      <path
         d="M 0,0 H 376 V 376 H 0 Z"
         id="path48" />
    </clipPath>
    <clipPath
       clipPathUnits="userSpaceOnUse"
       id="clipPath50">
      <path
         d="m 215.219,79.23 h 81.305 v 81.301 h -81.305 z"
         transform="scale(1.3333333)"
         id="path50" />
    </clipPath>
    <clipPath
       clipPathUnits="userSpaceOnUse"
       id="clipPath51">
      <path
         d="M 0,0 H 376 V 376 H 0 Z"
         id="path51" />
    </clipPath>
    <clipPath
       clipPathUnits="userSpaceOnUse"
       id="clipPath53">
      <path
         d="m 215.219,79.23 h 81.305 v 81.301 h -81.305 z"
         transform="scale(1.3333333)"
         id="path53" />
    </clipPath>
    <clipPath
       clipPathUnits="userSpaceOnUse"
       id="clipPath54">
      <path
         d="M 0,0 H 376 V 376 H 0 Z"
         id="path54" />
    </clipPath>
    <clipPath
       clipPathUnits="userSpaceOnUse"
       id="clipPath56">
      <path
         d="m 215.219,79.23 h 81.305 v 81.301 h -81.305 z"
         transform="scale(1.3333333)"
         id="path56" />
    </clipPath>
    <clipPath
       clipPathUnits="userSpaceOnUse"
       id="clipPath57">
      <path
         d="M 0,0 H 376 V 376 H 0 Z"
         id="path57" />
    </clipPath>
    <clipPath
       clipPathUnits="userSpaceOnUse"
       id="clipPath59">
      <path
         d="m 215.219,79.23 h 81.305 v 81.301 h -81.305 z"
         transform="scale(1.3333333)"
         id="path59" />
    </clipPath>
  </defs>
  <sodipodi:namedview
     id="namedview1"
     pagecolor="#ffffff"
     bordercolor="#111111"
     borderopacity="1"
     inkscape:showpageshadow="0"
     inkscape:pageopacity="0"
     inkscape:pagecheckerboard="1"
     inkscape:deskcolor="#d1d1d1"
     inkscape:zoom="1.0893759"
     inkscape:cx="233.62"
     inkscape:cy="233.62"
     inkscape:window-width="1366"
     inkscape:window-height="705"
     inkscape:window-x="-8"
     inkscape:window-y="-8"
     inkscape:window-maximized="1"
     inkscape:current-layer="g1" />
  <g
     id="g1"
     inkscape:groupmode="layer"
     inkscape:label=""
     transform="translate(-17.030666,-17.030666)">
    <g
       id="g10"
       style="fill:#f9f9f9">
      <g
         clip-path="url(#clipPath5)"
         id="g9"
         style="fill:#f9f9f9">
        <g
           clip-path="url(#clipPath4)"
           id="g8"
           style="fill:#f9f9f9">
          <g
             clip-path="url(#clipPath3)"
             id="g7"
             style="fill:#f9f9f9">
            <g
               clip-path="url(#clipPath2)"
               id="g6"
               style="fill:#f9f9f9">
              <path
                 d="M 188,12.773 C 91.223,12.773 12.773,91.223 12.773,188 c 0,96.773 78.45,175.227 175.227,175.227 96.773,0 175.227,-78.454 175.227,-175.227 C 363.227,91.223 284.773,12.773 188,12.773 Z"
                 style="fill:#f9f9f9;stroke:#008b48;stroke-width:13.536;stroke-linecap:butt;stroke-linejoin:miter;stroke-miterlimit:10;stroke-dasharray:none;stroke-opacity:1"
                 transform="scale(1.3333333)"
                 clip-path="url(#clipPath1)"
                 id="path6" />
            </g>
          </g>
        </g>
      </g>
    </g>
    <g
       id="g18">
      <g
         clip-path="url(#clipPath13)"
         id="g17">
        <g
           clip-path="url(#clipPath12)"
           id="g16">
          <g
             clip-path="url(#clipPath11)"
             id="g15">
            <g
               id="g14">
              <path
                 d="M 57.965,57.965 H 182.043 V 182.043 H 57.965 Z"
                 style="fill:#008b48;fill-opacity:1;fill-rule:nonzero;stroke:none"
                 transform="scale(1.3333333)"
                 clip-path="url(#clipPath10)"
                 id="path14" />
            </g>
          </g>
        </g>
      </g>
    </g>
    <g
       id="g26">
      <g
         clip-path="url(#clipPath21)"
         id="g25">
        <g
           clip-path="url(#clipPath20)"
           id="g24">
          <g
             clip-path="url(#clipPath19)"
             id="g23">
            <g
               id="g22">
              <path
                 d="M 193.957,57.965 H 318.035 V 182.043 H 193.957 Z"
                 style="fill:#008b48;fill-opacity:1;fill-rule:nonzero;stroke:none"
                 transform="scale(1.3333333)"
                 clip-path="url(#clipPath18)"
                 id="path22" />
            </g>
          </g>
        </g>
      </g>
    </g>
    <g
       id="g34">
      <g
         clip-path="url(#clipPath29)"
         id="g33">
        <g
           clip-path="url(#clipPath28)"
           id="g32">
          <g
             clip-path="url(#clipPath27)"
             id="g31">
            <g
               id="g30">
              <path
                 d="M 193.957,193.957 H 318.035 V 318.035 H 193.957 Z"
                 style="fill:#008b48;fill-opacity:1;fill-rule:nonzero;stroke:none"
                 transform="scale(1.3333333)"
                 clip-path="url(#clipPath26)"
                 id="path30" />
            </g>
          </g>
        </g>
      </g>
    </g>
    <g
       id="g42">
      <g
         clip-path="url(#clipPath37)"
         id="g41">
        <g
           clip-path="url(#clipPath36)"
           id="g40">
          <g
             clip-path="url(#clipPath35)"
             id="g39">
            <g
               id="g38">
              <path
                 d="M 57.965,193.957 H 182.043 V 318.035 H 57.965 Z"
                 style="fill:#008b48;fill-opacity:1;fill-rule:nonzero;stroke:none"
                 transform="scale(1.3333333)"
                 clip-path="url(#clipPath34)"
                 id="path38" />
            </g>
          </g>
        </g>
      </g>
    </g>
    <g
       id="g43"
       clip-path="url(#clipPath44)">
      <path
         d="m 148.637,239.934 c 1.097,-1.438 2.25,-2.946 3.445,-4.512 9.406,11.933 11.152,35.305 -5.617,50.785 -15.485,14.289 -39.793,13.688 -54.594,-1.348 -14.898,-15.129 -15.051,-39.25 -0.437,-54.547 15.046,-15.75 38.855,-15.246 52.476,-3.73 -1.344,1.195 -2.691,2.391 -4.285,3.809 -8.035,-5.832 -17.508,-7.793 -27.695,-5.426 -7.742,1.801 -14.071,6.051 -18.825,12.457 -9.785,13.18 -8.722,31 2.485,42.812 11.207,11.813 28.933,13.825 42.664,4.985 11.297,-7.274 21.144,-25.028 10.383,-45.285 z"
         style="fill:#ffffff;fill-opacity:1;fill-rule:nonzero;stroke:none"
         transform="scale(1.3333333)"
         clip-path="url(#clipPath42)"
         id="path43" />
    </g>
    <g
       id="g46"
       clip-path="url(#clipPath47)">
      <path
         d="m 113.723,260.387 c 4.683,-4.551 9.203,-8.817 13.586,-13.219 8.781,-8.813 17.48,-17.703 26.222,-26.555 0.543,-0.551 1.094,-1.113 1.719,-1.554 1.004,-0.7 2.059,-0.551 2.961,0.203 1.004,0.832 1.297,1.945 0.742,3.144 -0.281,0.606 -0.754,1.125 -1.168,1.664 -13.734,17.875 -27.473,35.746 -41.211,53.618 -0.234,0.308 -0.457,0.628 -0.715,0.921 -1.875,2.137 -3.547,2.09 -5.152,-0.316 -2.695,-4.043 -5.285,-8.152 -7.914,-12.234 -1.949,-3.024 -3.957,-6.008 -5.824,-9.079 -1.684,-2.769 -0.949,-5.828 1.613,-7.363 2.07,-1.242 3.918,-0.984 5.746,0.918 2.828,2.945 5.602,5.942 8.406,8.906 0.325,0.348 0.688,0.661 0.989,0.946 z"
         style="fill:#ffffff;fill-opacity:1;fill-rule:nonzero;stroke:none"
         transform="scale(1.3333333)"
         clip-path="url(#clipPath45)"
         id="path46" />
    </g>
    <g
       id="g49"
       clip-path="url(#clipPath50)">
      <path
         d="m 246.191,146.98 h -21.293 c -4.277,0 -7.742,-3.464 -7.742,-7.742 V 96.652 c 0,-4.277 3.465,-7.742 7.742,-7.742 h 30.973 c 4.277,0 7.742,3.465 7.742,7.742 h -2.902 c -8.004,0 -14.52,6.512 -14.52,14.52 z"
         style="fill:#fdba74;fill-opacity:1;fill-rule:nonzero;stroke:none"
         transform="scale(1.3333333)"
         clip-path="url(#clipPath48)"
         id="path49" />
    </g>
    <g
       id="g52"
       clip-path="url(#clipPath53)">
      <path
         d="m 294.586,120.75 v 31.07 c 0,3.742 -3.031,6.778 -6.774,6.778 h -27.101 c -3.742,0 -6.773,-3.036 -6.773,-6.778 v -40.648 c 0,-3.742 3.031,-6.777 6.773,-6.777 h 17.519 c 1.797,0 3.52,0.714 4.793,1.984 l 9.579,9.582 c 1.273,1.269 1.984,2.992 1.984,4.789 z"
         style="fill:#ffffff;fill-opacity:1;fill-rule:nonzero;stroke:none"
         transform="scale(1.3333333)"
         clip-path="url(#clipPath51)"
         id="path52" />
    </g>
    <g
       id="g55"
       clip-path="url(#clipPath56)">
      <path
         d="m 294.586,121.332 h -10.16 c -3.742,0 -6.778,-3.031 -6.778,-6.773 v -10.164 h 0.582 c 1.797,0 3.52,0.714 4.79,1.984 l 9.582,9.582 c 1.273,1.269 1.984,2.992 1.984,4.789 z"
         style="fill:#cbd5e1;fill-opacity:1;fill-rule:nonzero;stroke:none"
         transform="scale(1.3333333)"
         clip-path="url(#clipPath54)"
         id="path55" />
    </g>
    <g
       id="g58"
       clip-path="url(#clipPath59)">
      <path
         d="M 219.094,139.238 V 96.652 c 0,-3.203 2.605,-5.808 5.804,-5.808 h 30.973 c 3.203,0 5.809,2.605 5.809,5.808 h 3.871 c 0,-5.34 -4.34,-9.679 -9.68,-9.679 h -6.004 c -0.898,-4.414 -4.808,-7.743 -9.48,-7.743 -4.676,0 -8.586,3.329 -9.485,7.743 h -6.004 c -5.336,0 -9.679,4.339 -9.679,9.679 v 42.586 c 0,5.34 4.343,9.68 9.679,9.68 h 21.293 v -3.871 h -21.293 c -3.199,0 -5.804,-2.606 -5.804,-5.809 z m 21.293,-56.136 c 2.523,0 4.675,1.617 5.476,3.871 H 234.91 c 0.797,-2.254 2.953,-3.871 5.477,-3.871 z m 53.586,31.488 -9.582,-9.578 c -1.621,-1.621 -3.868,-2.555 -6.161,-2.555 h -17.519 c -4.805,0 -8.711,3.91 -8.711,8.715 v 40.648 c 0,4.801 3.906,8.711 8.711,8.711 h 27.101 c 4.801,0 8.711,-3.91 8.711,-8.711 v -31.07 c 0,-2.289 -0.929,-4.535 -2.55,-6.16 z m -14.387,-7.988 c 0.769,0.23 1.496,0.574 2.066,1.148 l 9.582,9.578 c 0.571,0.57 0.918,1.301 1.145,2.07 h -7.953 c -2.672,0 -4.84,-2.171 -4.84,-4.839 z m 13.066,45.218 c 0,2.672 -2.172,4.84 -4.84,4.84 h -27.101 c -2.668,0 -4.84,-2.168 -4.84,-4.84 v -40.648 c 0,-2.672 2.172,-4.84 4.84,-4.84 h 15.004 v 8.227 c 0,4.8 3.91,8.711 8.711,8.711 h 8.226 z m -42.586,-51.297 c 0,1.071 -0.867,1.934 -1.937,1.934 h -15.484 c -1.071,0 -1.938,-0.863 -1.938,-1.934 0,-1.07 0.867,-1.937 1.938,-1.937 h 15.484 c 1.07,0 1.937,0.867 1.937,1.937 z"
         style="fill:#0f172a;fill-opacity:1;fill-rule:nonzero;stroke:none"
         transform="scale(1.3333333)"
         clip-path="url(#clipPath57)"
         id="path58" />
    </g>
  </g>
</svg>
